<svg width="150" height="150" viewBox="0 0 150 150" fill="none" xmlns="http://www.w3.org/2000/svg">
<path d="M100 0C127.614 0 150 22.3858 150 50V100C150 127.614 127.614 150 100 150H50C22.3858 150 8.0543e-07 127.614 0 100V50C0 22.3858 22.3858 8.05325e-07 50 0H100Z" fill="#3182F6"/>
<circle cx="75" cy="75" r="65" fill="white"/>
<path d="M41.4424 40.381C46.2552 38.9466 51.3122 41.6874 52.7373 46.503L59.4209 69.0909L66.0479 46.6974C67.2267 42.7133 70.8909 40.151 74.8467 40.1964C78.8025 40.151 82.4676 42.7132 83.6465 46.6974L90.3008 69.1886L96.957 46.6974C98.382 41.8815 103.439 39.1407 108.252 40.5753C113.065 42.0101 115.811 47.077 114.386 51.8927L108.842 70.63H117C118.657 70.63 120 71.9733 120 73.63V77.6671C120 79.3238 118.657 80.6671 117 80.6671H105.871L99.1006 103.55C97.9216 107.534 94.2568 110.096 90.3008 110.05C86.3452 110.095 82.6808 107.534 81.502 103.55L74.8467 81.0577L68.1914 103.55C66.7664 108.366 61.7095 111.107 56.8965 109.673C55.3305 109.206 53.9847 108.353 52.9287 107.251C51.8666 106.207 51.0457 104.887 50.5928 103.357L43.8789 80.6671H33C31.3432 80.6671 30.0001 79.3238 30 77.6671V73.63C30.0002 71.9733 31.3433 70.63 33 70.63H40.9092L35.3076 51.6983C33.8827 46.8825 36.6294 41.8155 41.4424 40.381Z" fill="#3182F6"/>
</svg>
